<svg width="13.658691" height="14.142822" viewBox="0 0 13.6587 14.1428" fill="none" xmlns="http://www.w3.org/2000/svg" xmlns:xlink="http://www.w3.org/1999/xlink">
    <desc>
        Created with Pixso.
    </desc>
    <defs/>
    <path id="Vector" d="M13.1587 0L3.73828 0C3.46191 0 3.23828 0.223145 3.23828 0.5L3.23828 3.5C3.23828 3.53931 3.27051 3.57153 3.31006 3.57153L4.38135 3.57153C4.42041 3.57153 4.45264 3.53931 4.45264 3.5L4.45264 1.21436L12.4443 1.21436L12.4443 12.9285L4.45264 12.9285L4.45264 10.6428C4.45264 10.6035 4.42041 10.5715 4.38135 10.5715L3.31006 10.5715C3.27051 10.5715 3.23828 10.6035 3.23828 10.6428L3.23828 13.6428C3.23828 13.9197 3.46191 14.1428 3.73828 14.1428L13.1587 14.1428C13.4355 14.1428 13.6587 13.9197 13.6587 13.6428L13.6587 0.5C13.6587 0.223145 13.4355 0 13.1587 0ZM2.85742 4.93921L2.85742 6.46436L9.77783 6.46436L9.77783 7.67847L2.85742 7.67847L2.85742 9.20361C2.85742 9.27148 2.77881 9.30884 2.72705 9.26782L0.0307617 7.13403C0.0209961 7.12646 0.0131836 7.1167 0.00830078 7.10571C0.00292969 7.09473 0 7.08276 0 7.07056C0 7.05835 0.00292969 7.04639 0.00830078 7.0354C0.0131836 7.02441 0.0209961 7.01465 0.0307617 7.00708L2.72705 4.875C2.78076 4.83203 2.85742 4.87134 2.85742 4.93921Z" fill="#000000" fill-opacity="1.000000" fill-rule="evenodd"/>
</svg>
