<svg width="208" height="64" viewBox="0 0 208 64" fill="none"
     xmlns="http://www.w3.org/2000/svg">
    <rect width="208" height="64" fill="white"/>
    <path
        d="M115.263 30.1459H119.923V33.1987H119.992C120.2 32.7217 120.51 32.2447 120.925 31.7995C121.304 31.3543 121.753 31.0045 122.271 30.6865C122.754 30.3685 123.307 30.1459 123.894 29.9551C124.446 29.7961 125.067 29.7325 125.689 29.7007C126 29.7007 126.345 29.7643 126.759 29.8597V34.0573C126.517 34.0255 126.241 33.9937 125.93 33.9619C125.585 33.9301 125.275 33.8983 124.998 33.8983C124.101 33.8983 123.341 34.0573 122.72 34.3117C122.098 34.5979 121.581 34.9795 121.201 35.4565C120.821 35.9335 120.545 36.4741 120.407 37.1101C120.234 37.7461 120.165 38.4457 120.165 39.1771V46.6608H115.263V30.1459Z"
        fill="#10239E"/>
    <path
        d="M108.661 36.6013C108.42 35.4565 108.006 34.5979 107.419 33.9937C106.832 33.4213 105.934 33.1351 104.76 33.1033C103.966 33.1033 103.31 33.2305 102.792 33.4849C102.275 33.7393 101.86 34.0255 101.55 34.3753C101.239 34.7569 101.032 35.1385 100.894 35.5201C100.756 35.9335 100.687 36.2833 100.687 36.6013H108.661ZM100.687 39.4633C100.756 40.9261 101.135 42.0073 101.895 42.6433C102.62 43.3112 103.69 43.6292 105.071 43.6292C106.038 43.6292 106.901 43.4066 107.626 42.9613C108.316 42.5161 108.765 42.0073 108.938 41.4985H113.253C112.563 43.4702 111.492 44.9012 110.077 45.728C108.627 46.5866 106.901 47 104.898 47C103.483 47 102.206 46.8092 101.101 46.3958C99.9615 45.9824 98.9949 45.3782 98.2354 44.615C97.4413 43.8518 96.8199 42.9613 96.4056 41.8801C95.9913 40.8307 95.7842 39.6541 95.7842 38.3821C95.7842 37.1737 95.9913 36.0289 96.4401 34.9477C96.8544 33.8983 97.4758 32.9761 98.3044 32.2129C99.0984 31.4497 100.065 30.8137 101.17 30.3685C102.275 29.9233 103.517 29.7007 104.898 29.7007C106.417 29.7007 107.729 29.9869 108.869 30.5275C109.973 31.0681 110.906 31.7995 111.631 32.6899C112.356 33.6121 112.873 34.6615 113.219 35.8063C113.529 36.9829 113.633 38.1913 113.564 39.4633H100.687Z"
        fill="#10239E"/>
    <path
        d="M89.7615 46.6608H84.3068L78.2275 30.1459H83.3716L87.1346 41.3714H87.2037L90.9667 30.1459H95.8346L89.7615 46.6608Z"
        fill="#10239E"/>
    <path
        d="M73.3177 36.6013C73.0761 35.4565 72.6618 34.5979 72.0749 33.9937C71.488 33.4213 70.5904 33.1351 69.4166 33.1033C68.6225 33.1033 67.9666 33.2305 67.4487 33.4849C66.9309 33.7393 66.5166 34.0255 66.2059 34.3753C65.8952 34.7569 65.688 35.1385 65.5499 35.5201C65.4118 35.9335 65.3428 36.2833 65.3428 36.6013H73.3177ZM65.3428 39.4633C65.4118 40.9261 65.7916 42.0073 66.5511 42.6433C67.2761 43.3112 68.3463 43.6292 69.7273 43.6292C70.6939 43.6292 71.557 43.4066 72.282 42.9613C72.9725 42.5161 73.4213 42.0073 73.5939 41.4985H77.9094C77.2189 43.4702 76.1487 44.9012 74.7332 45.728C73.2832 46.5866 71.557 47 69.5547 47C68.1392 47 66.8618 46.8092 65.7571 46.3958C64.6178 45.9824 63.6511 45.3782 62.8916 44.615C62.0976 43.8518 61.4761 42.9613 61.0619 41.8801C60.6476 40.8307 60.4404 39.6541 60.4404 38.3821C60.4404 37.1737 60.6476 36.0289 61.0964 34.9477C61.5107 33.8983 62.1321 32.9761 62.9607 32.2129C63.7547 31.4497 64.7214 30.8137 65.8261 30.3685C66.9309 29.9233 68.1737 29.7007 69.5547 29.7007C71.0737 29.7007 72.3856 29.9869 73.5249 30.5275C74.6296 31.0681 75.5618 31.7995 76.2868 32.6899C77.0118 33.6121 77.5296 34.6615 77.8748 35.8063C78.1856 36.9829 78.2891 38.1913 78.2201 39.4633H65.3428Z"
        fill="#10239E"/>
    <path d="M53.8569 23.1286H58.6902V46.6608H53.8569V23.1286Z" fill="#10239E"/>
    <path
        d="M46.5473 31.2247C46.4435 30.6577 46.2358 30.1536 45.9243 29.6811C45.5782 29.2086 45.1975 28.799 44.713 28.421C44.2285 28.0745 43.6747 27.791 43.0517 27.6019C42.4287 27.4129 41.8057 27.3184 41.1482 27.2869C39.9022 27.2869 38.8639 27.5074 38.0332 27.9485C37.168 28.3895 36.4758 28.9565 35.9566 29.6811C35.4029 30.4056 35.0222 31.2247 34.7799 32.1383C34.5376 33.0833 34.4338 34.0284 34.4338 35.005C34.4338 35.95 34.5376 36.8951 34.7799 37.7772C35.0222 38.6592 35.4029 39.4783 35.9566 40.1713C36.4758 40.8959 37.168 41.4629 38.0332 41.904C38.8639 42.345 39.9022 42.534 41.1482 42.534C42.8094 42.534 44.09 42.093 45.0245 41.1479C45.959 40.2343 46.5473 39.0058 46.755 37.4936H52.0157C51.8773 38.9112 51.4966 40.1713 50.9428 41.3054C50.3544 42.4395 49.593 43.4161 48.6585 44.2036C47.6895 45.0227 46.5819 45.6212 45.336 46.0308C44.0554 46.4718 42.671 46.6608 41.1482 46.6608C39.2446 46.6608 37.5487 46.3773 36.0259 45.7787C34.503 45.1802 33.257 44.3611 32.2187 43.2901C31.1804 42.2505 30.3844 41.0219 29.8306 39.6043C29.2769 38.1867 29 36.6431 29 35.005C29 33.3354 29.2769 31.7917 29.8306 30.3426C30.3844 28.8935 31.1804 27.6335 32.2187 26.5624C33.257 25.5228 34.503 24.6722 36.0259 24.0422C37.5487 23.4437 39.2446 23.1601 41.1482 23.1286C42.4979 23.1286 43.7785 23.3176 44.9899 23.6642C46.2012 24.0422 47.2741 24.5462 48.2432 25.2393C49.2123 25.9323 50.0083 26.7514 50.6313 27.7595C51.2543 28.7675 51.635 29.9331 51.8081 31.2247H46.5473Z"
        fill="#10239E"/>
    <path
        d="M156.753 25.2545H160.996V29.8163H156.753V38.5332C156.753 41.5 156.937 41.4912 157.305 41.8388C157.673 42.1863 158.41 42.3601 159.515 42.3601C159.883 42.4036 160.205 42.3601 160.573 42.3167C160.896 42.3167 161.341 42.0706 161.571 41.8388V46.6178C160.996 46.8631 160.343 47.1392 159.699 47.1392C159.008 47.1826 158.364 47.1826 157.719 47.1826C157.676 47.1826 156.947 47.1826 156.641 47.1392C155.893 47.0333 154.781 46.6395 154.091 46.2485C153.707 46.0313 152.71 45.0538 152.595 44.6193C152.25 44.0762 152.058 43.0118 152.058 41.8822V29.8163H147.992V25.2545H152.058V17.6515H156.753V25.2545Z"
        fill="#10239E"/>
    <path fill-rule="evenodd" clip-rule="evenodd"
          d="M127.738 29.8163H130.96V46.6613H136.116V29.8163H139.936L139.936 25.2545H136.116L136.116 24.8635C136.116 23.9511 136.3 23.0847 136.668 22.6937C137.036 22.3027 137.681 22.0855 138.601 22.0855C139.43 22.0855 140.212 22.1289 140.995 22.2158V17.6515L139.246 17.6515L137.52 17.6515C135.333 17.6515 133.607 18.7039 132.571 19.7152C131.236 21.0185 130.96 22.5174 130.96 24.4725L130.96 25.2545H127.738L127.738 29.8163ZM146.611 31.7714H141.593V46.6613H146.611V31.7714Z"
          fill="#10239E"/>
    <path
        d="M146.611 27.5789C146.611 28.9023 145.517 29.9751 144.194 29.9751C142.871 29.9751 141.777 28.9023 141.777 27.5789C141.777 26.2555 142.871 25.1826 144.194 25.1826C145.517 25.1826 146.611 26.2555 146.611 27.5789Z"
        fill="#40A9FF"/>
</svg>
